<svg xmlns="http://www.w3.org/2000/svg" width="64" height="64" fill="none"><g clip-path="url(#a)"><mask id="b" width="64" height="64" x="0" y="0" maskUnits="userSpaceOnUse" style="mask-type:luminance"><path fill="#fff" d="M0 0h64v64H0z"/></mask><g mask="url(#b)"><mask id="c" width="64" height="65" x="0" y="0" maskUnits="userSpaceOnUse" style="mask-type:alpha"><path fill="#fff" d="M48 16c0 8.837-7.164 16-16 16s-16-7.163-16-16S23.163 0 32 0s16 7.164 16 16m0 32c0 8.837-7.164 16-16 16s-16-7.163-16-16 7.163-16 16-16 16 7.163 16 16"/><path fill="#fff" d="M0 64a16 16 0 1 0 0-32zm64 0a15.998 15.998 0 0 1-11.314-27.314A16 16 0 0 1 64 32zM0 32A16 16 0 1 0 0 0z"/><path fill="#fff" d="M64 32a16 16 0 1 1 0-32z"/></mask><g fill="#fff" mask="url(#c)"><path d="M64 0H0v64h64z"/><path d="M64 0H0v64h64z"/><g filter="url(#d)"><path d="M67.52 40.64H-3.52v37.12h71.04zM28.16 22.08C47.954 22.08 64 15.561 64 7.52S47.954-7.04 28.16-7.04-7.68-.521-7.68 7.52 8.366 22.08 28.16 22.08"/></g></g></g><mask id="e" width="64" height="65" x="0" y="0" maskUnits="userSpaceOnUse" style="mask-type:alpha"><path fill="#fff" d="M48 16c0 8.837-7.164 16-16 16s-16-7.163-16-16S23.163 0 32 0s16 7.164 16 16m0 32c0 8.837-7.164 16-16 16s-16-7.163-16-16 7.163-16 16-16 16 7.163 16 16"/><path fill="#fff" d="M0 64a16 16 0 1 0 0-32zm64 0a15.998 15.998 0 0 1-11.314-27.314A16 16 0 0 1 64 32zM0 32A16 16 0 1 0 0 0z"/><path fill="#fff" d="M64 32a16 16 0 1 1 0-32z"/></mask><g mask="url(#e)"><path fill="#fff" d="M64 0H0v64h64z" style="mix-blend-mode:overlay"/></g></g><defs><clipPath id="a"><path fill="#fff" d="M0 0h64v64H0z"/></clipPath><filter id="d" width="315.2" height="324.8" x="-127.68" y="-127.04" color-interpolation-filters="sRGB" filterUnits="userSpaceOnUse"><feFlood flood-opacity="0" result="BackgroundImageFix"/><feBlend in="SourceGraphic" in2="BackgroundImageFix" result="shape"/><feGaussianBlur result="effect1_foregroundBlur_94_37" stdDeviation="60"/></filter></defs></svg>